<svg xmlns="http://www.w3.org/2000/svg" viewBox="0 0 1200 820"><defs><linearGradient id="g" x1="0" y1="0" x2="1" y2="1"><stop stop-color="#09131c"/><stop offset="1" stop-color="#29251f"/></linearGradient><linearGradient id="a"><stop stop-color="#8ea6a4"/><stop offset="1" stop-color="#748781"/></linearGradient></defs><rect width="1200" height="820" fill="url(#g)"/><path d="M100 602h1000" stroke="#89948e" stroke-opacity=".28" stroke-width="24"/><g fill="#26322e" stroke="#fff" stroke-opacity=".09"><rect x="166" y="210" width="240" height="330" rx="32"/><rect x="480" y="210" width="240" height="330" rx="32"/><rect x="794" y="210" width="240" height="330" rx="32"/></g><g fill="none" stroke="url(#a)" stroke-width="15" stroke-linecap="round" stroke-linejoin="round"><path d="M230 425v-95c0-45 38-82 84-82s84 37 84 82v95"/><path d="M544 425v-95c0-45 38-82 84-82s84 37 84 82v95"/><path d="M858 425v-95c0-45 38-82 84-82s84 37 84 82v95"/></g><g fill="#33403b"><rect x="218" y="401" width="192" height="88" rx="26"/><rect x="532" y="401" width="192" height="88" rx="26"/><rect x="846" y="401" width="192" height="88" rx="26"/></g><g fill="#7b8781"><circle cx="250" cy="614" r="22"/><circle cx="455" cy="614" r="22"/><circle cx="660" cy="614" r="22"/><circle cx="865" cy="614" r="22"/></g></svg>
