<svg xmlns="http://www.w3.org/2000/svg" viewBox="0 0 256 256" role="img" aria-label="JB monogram">
  <path d="M18 8h210l20 20v210l-10 10H28L8 228V18Z" fill="#1a221f"/>
  <g fill="none" stroke="#d9ddd6" stroke-width="14" stroke-linecap="square" stroke-linejoin="bevel">
    <path d="M64 52v136c0 18-10 26-28 26"/>
    <path d="M64 128h45"/>
    <path d="M112 68v120M112 68l38 38-38 38"/>
    <path d="M158 68v120h27l30-31-27-28 27-29-27-32h-30"/>
  </g>
  <g fill="none" stroke="#7f9691" stroke-width="5">
    <path d="M30 42 50 22M206 22l20 20M30 214l20 20M206 234l20-20"/>
  </g>
</svg>
